<svg id="Capa_1" enable-background="new 0 0 509.624 509.624" height="512" viewBox="0 0 509.624 509.624" width="512" xmlns="http://www.w3.org/2000/svg"><g><g><g><g><path d="m78.911 71.307c14.556-4.943 31.226-3.718 44.73 3.674-.019.033 25.912-.014 25.918.005 29.031 0 52.565-23.534 52.565-52.565-20.61-1.171-38.83 2.044-51.07 20.365h-1.09c4.621-38.806-49.163-50.619-60.172-9.384h-.757c-10.656-24.837-50.637-6.07-14.443 37.55z" fill="#db380e"/></g><g><path d="m147.386 74.981c-11.593-6.345-25.516-8.133-38.435-5.388 5.124 1.087 10.093 2.871 14.691 5.388-.016.027 17.515 0 23.744 0z" fill="#af2d0b"/></g><g><path d="m197.857 22.246c-8.051 18.704-26.642 31.803-48.298 31.803-.005-.019-25.936.029-25.918-.005-11.605-6.352-25.546-8.137-38.477-5.379-2.822-8.726-1.828-15.508 1.11-20.003-7.022-9.075-19.203-8.067-24.247.832 0-.001-.001-.003-.002-.004-7.012 14.507 3.668 30.297 12.567 41.462l4.319.355c5.582-1.882 11.453-2.86 17.34-2.957 9.508-.138 19.052 2.068 27.389 6.631-.019.033 25.912-.014 25.918.005 29.031 0 52.565-23.534 52.565-52.565-1.434-.082-2.856-.14-4.266-.175z" fill="#af2d0b"/></g><g><path d="m211.359 402.379-11.297-20.931-33.583.626 6.382 7.871c14.136 19.523 21.727 43.02 21.684 67.123l-.04 22.915 30 .052.044-25.254c.033-18.292-4.501-36.304-13.19-52.402z" fill="#f8e868"/></g><g><g><path d="m224.506 460.07-29.965-.052-.035 19.965 30 .053z" fill="#e8ab4c"/></g></g><g><path d="m224.592 401.962c-12.428-2.678-21.802-11.976-21.802-11.976 14.17 19.498 21.802 42.982 21.802 67.085v22.915h30v-75c0-.001-17.572-.346-30-3.024z" fill="#f8e868"/></g><g><g><path d="m224.592 437.155c0-12.721-2.146-25.263-6.237-37.144-9.193-3.721-15.565-10.026-15.565-10.026 14.17 19.498 21.802 42.982 21.802 67.085z" fill="#d08a1c"/></g><g><path d="m224.592 460.07h30v19.915h-30z" fill="#e8ab4c"/></g></g><g><path d="m364.444 225.058c35.74 0 62.616 28.9 62.616 64.64v-99.431c0-11.205-6.643-22.356-14.363-30.076-12.001-10.191-45.19-10.191-45.19-10.191s0 24.519 0 44.986-3.063 30.072-3.063 30.072z" fill="#e8ab4c"/></g><g><path d="m389.107 206.017c.715-15.768.154-47.089.323-54.187-5.716-.92-11.228-1.378-15.296-1.605-2.422-.131-4.417-.207-6.627-.225v44.986s-3.063 30.072-3.063 30.072c35.74 0 62.616 28.9 62.616 64.64v-54.55c0-.001-12.064-24.105-37.953-29.131z" fill="#d08a1c"/></g><g><path d="m434.347 89.985c-58.67-2.191-66.84 60-66.84 60 64.492-.436 104.936 52.5 104.936 120v-141.904c0-21.04-14.149-35.904-38.096-38.096z" fill="#e8ab4c"/></g><g><path d="m471.369 190.652c-14.263-31.852-40.682-54.364-75.942-59.647 6.309-15.348 19.44-35.156 45.905-39.96-43.329-6.826-67.618 24.212-73.825 58.94 64.492-.436 104.936 52.5 104.936 120v-76.896-.939c-.352-.505-.714-1-1.074-1.498z" fill="#d08a1c"/></g><g><path d="m374.59 34.687c61.322-20.837 128.7 27.746 127.533 92.831.001-.001.001 45.042.001 45.042 6.723-99.896-118.359-111.598-134.09-25.721l-60.017 43.286c.567-68.786-12.2-125.898 66.573-155.438z" fill="#e8ab4c"/></g><g><g><path d="m502.124 124.356v2.547c.009-.852.013-1.702 0-2.547z" fill="#f0d5b3"/></g><g><path d="m502.124 172.56c.348-5.168.324-10.086 0-14.78z" fill="#f0d5b3"/></g></g><g><path d="m502.128 125.836c-.003-14.214-3.272-27.61-9.023-39.634-3.692-2.535-7.606-4.649-11.659-6.369-38.961-33.067-120.045-14.497-129.099 51.388l-23.509 16.956c-.723-42.162-1.136-78.579 26.894-104.986-39.164 21.205-46.911 52.407-48.004 89.848 0-.026-.001-.053-.001-.079-.514 19.037.476 38.1.293 57.166l60.017-43.286c4.87-26.586 20.221-43.813 38.893-51.971-.002.002-.005.005-.007.007 51.037-15.151 90.859 11.256 95.203 62.904-.028-12.68.035-22.7.002-31.944z" fill="#d08a1c"/></g><g><path d="m20.936 209.488c-4.151 8.15-6.344 17.205-6.344 26.437 0 10.526 8.533 19.06 19.06 19.06h.35c10.526 0 20.06-8.533 20.06-19.06 0 0 4.937-21.578 21.319-40.94 8.602-14.87 6.573-30.001 6.573-30.001h-33.682s-3.681 11.325-10.555 20.663-16.781 23.841-16.781 23.841z" fill="#db380e"/></g><g><path d="m82.094 166.663c-.032-.56-.074-1.13-.141-1.678h-3.062-30.618s-3.681 11.325-10.555 20.663-16.781 23.84-16.781 23.84c-4.148 8.162-6.323 17.287-6.344 26.437-.285 13.898 15.101 23.164 27.462 17.342 6.879-2.999 12.007-9.627 12.007-17.342 0 0 4.937-21.578 21.319-40.94 6.893-11.917 6.958-23.992 6.713-28.322zm-28.033 50.85c0 10.321-9.17 14.786-19.45 14.956.693-7.309 2.737-14.415 6.059-20.939 0 0 9.907-14.503 16.781-23.84s10.555-20.663 10.555-20.663h10.075c-.757 1.805-1.646 3.633-2.702 5.459-2 30.013-21.318 45.027-21.318 45.027z" fill="#af2d0b"/></g><g><path d="m44.591 134.985h-7.085c-16.568 0-30 13.432-29.999 30h37.085z" fill="#f8e868"/></g><g><path d="m367.507 149.985h-3.913l-51.004 37.5h-162.998v-67.233c-1.746-69.224-103.239-69.252-105-.002v44.734h37.361c.314 17.674-7.017 34.275-17.469 48.216-9.175 13.411-13.1 29.59-12.424 45.735-.608 75.512 68.254 133.041 142.333 122.618 0 0 79.411.571 136.663-78.459 33.472-43.519 38.951-98 36.451-153.109z" fill="#e8ab4c"/></g><g><path d="m367.885 160.695c6.61 127.196-123.726 223.323-222.835 196.655-31.023-8.347-56.411-31.203-66.354-61.752-8.402-25.815-6.119-54.838 12.011-82.4 10.451-13.938 13.466-25.713 13.466-70.263h-37.361c-.506-29.898-2.568-58.813 24.831-74.343-53.669 7.892-47.253 51.758-47.051 96.394h37.361c.314 17.674-7.045 34.486-17.469 48.216-38.435 73.23 22.066 151.45 76.792 164.646 31.859 9.9 87.891.824 104.115-7.441 71.13-33.382 132.267-99.668 122.494-209.712z" fill="#d08a1c"/></g><g><path d="m308.017 187.485-158.426.521c-18.724 27.656-25.294 57.415-4.394 86.12 21.909 29.962 54.252 26.044 86.863 25.857 33.137.001 59.999-26.862 59.999-59.999 4.867-4.486 17.66-22.006 15.958-52.499z" fill="#e8ab4c"/></g><g><g><path d="m232.061 275.966c-14.813.085-29.569.934-43.317-.971-22.196-3.075-37.431-23.897-33.29-45.918 2.596-13.804 10.02-27.323 19.032-40.682v-.47l-24.894.082c-7.994 11.807-13.76 23.999-16.132 36.327-3.658 17.401 1.144 35.669 11.738 49.793 14.163 20.768 39.377 26.61 63.172 26.111 7.902.058 15.783-.209 23.691-.254 30.818.001 56.197-23.239 59.599-53.148-11.267 17.419-30.051 29.13-59.599 29.13z" fill="#d08a1c"/></g></g><g><g><path d="m239.383 209.973.418-14.994c11.709.317 23.027-2.513 32.893-7.971l24.012.919c-14.114 14.218-32.922 22.505-57.323 22.046z" fill="#d08a1c"/></g></g><g><g><path d="m241.76 254.976h-2.168v-15c28.433 1.305 53.837-18.884 61.708-44.99l9.12 12.34c-10.913 27.535-37.236 48.138-68.66 47.65z" fill="#d08a1c"/></g></g><g><path d="m179.592 329.985v10.426c0 35.663 28.911 64.574 64.574 64.574h10.426v-75z" fill="#e8ab4c"/></g><g><path d="m202.468 329.985h-22.876v10.426c0 35.663 28.911 64.574 64.574 64.574h10.426v-18.51c-36.702-3.698-52.468-26.155-52.124-56.49z" fill="#d08a1c"/></g><g><path d="m164.592 209.985h15v15h-15z" fill="#fff"/></g><g><path d="m195.29 209.985h15v15h-15z" fill="#fff"/></g></g></g><g><path d="m306.037 320.903 10.611 10.603c3.729-3.733 7.35-7.654 10.758-11.654l-11.416-9.729c-3.153 3.699-6.502 7.326-9.953 10.78z"/><path d="m82.092 104.985h15v15h-15z"/><path d="m404.592 22.485c-11.033 0-21.902 1.704-32.308 5.065l4.611 14.273c49.87-17.056 106.171 16.554 115.784 67.036-38.146-47.525-121.724-27.458-131.468 33.625h-.079l-46.573 34.243c-.924-52.219-4.871-100.528 48.496-129.112l-6.932-13.303c-60.224 32.395-58.102 86.042-56.564 145.671h-142.467v-59.734c0-14.302-5.038-27.446-13.421-37.766 38.582 3.066 69.536-29.254 65.954-67.565-18.77-.243-38.321-1.505-53.506 11.42-10.382-31.652-53.535-35.339-68.405-6.96-13.684-11.225-36.153.037-35.622 18.023 0 12.946 7.273 25.489 12.282 32.595-18.78 11.805-29.094 34.465-27.282 57.5-19.997-.197-37.5 17.488-37.085 37.491v7.499h36.138c-2.08 6.154-7.217 12.759-11.217 17.889l11.828 9.224c5.584-7.161 12.937-16.61 14.851-27.112h22.418c-1.494 24.003-22.094 37.5-28.182 67.11-4.648 11.75-23.52 10.02-23.753-3.67 0-7.967 1.911-15.933 5.527-23.034l-13.367-6.807c-4.685 9.2-7.16 19.519-7.16 29.841-.4 18.964 20.428 32.023 37.486 24.447.726 67.21 52.303 122.442 118 128.947 20.127 22.747 26.191 53.541 24.513 83.166h-29.439l-36.939 36.938 21.186.028 21.966-21.966h20.821l-22.147 21.966h21.394l21.966-21.966h17.756l-21.531 21.966h18.66l22.639-21.966 19.981 21.966 19.164-.016-19.232-21.951h17.685l19.388 21.951h18.504l-30.747-36.951h-26.072v-21.93c16.594-.314 30-13.901 30-30.57h-15c0 8.396-6.678 15.244-15 15.555 0-17.337 0-47.759 0-65.295 15.193-7.327 29.429-16.547 42.353-27.499l-9.697-11.443c-10.089 8.549-21.04 15.959-32.655 22.14v-23.458h-15v67.5c-38.08 1.336-63.78-30.636-60-67.5h-15c-.704 15.352 1.191 31.966 8.794 44.896-73.119 4.155-133.538-64.606-119.452-136.504 2.212-10.283 8.246-19.923 14.317-28.485 10.614-15.36 14.574-33.93 13.702-52.407h-37.362c.019-4.734-.014-31.882 0-37.234 0-24.813 20.186-45 45-45s45 20.187 45 45v65.746l-7.663 13.277c-28.239 46.377 8.318 109.365 62.488 108.21-.002.001 35.143.001 35.143.001 36.626 0 66.51-29.327 67.455-65.73 10.519-13.372 16.164-29.911 16.003-47.113l44.489-32.711c2.532 48.089-5.241 97.735-35.021 136.761l12.143 8.806c16.32-22.504 27.57-47.729 33.352-74.425 60.319 12.344 48.084 65.862 49.08 112.106h15v-154.913c0-2.209-.215-4.38-.573-6.508 23.703 21.271 33.272 53.545 30.955 86.226h15c-.672-5.069 1.834-155.344-1.922-154.988 16.064 15.875 17.511 35.588 16.604 57.563h15v-45.043c-.001-57.915-47.118-105.032-105.033-105.032zm-157.5 390v60h-15c.706-21.39-.932-43.992-9.865-63.426 7.763 2.548 16.371 3.636 24.865 3.426zm-50.008-17.573c16.752 22.262 21.446 50.264 20.008 77.573h-15c1.437-28.96-3.555-58.528-20.267-82.63 3.171-.098 6.338-.268 9.486-.513 1.818 1.964 3.749 3.819 5.773 5.57zm-159.992-237.427h-20.812c2.952-8.658 11.624-14.955 20.812-14.98zm40.991-94.13c-4.566-5.887-20.298-30.894-3.492-33.456 7.247.869 7.515 7.476 9.152 11.001l11.845-.033c5.54-38.909 51.578-23.798 47.37-.757l-3.883 10.174h16c8.059-14.266 22.686-21.623 38.925-20.364-3.581 21.292-22.146 37.565-44.441 37.565h-23.927c-13.741-7.738-32.41-9.45-47.549-4.13zm153.977 229.13h-35.145c-42.909.913-71.865-48.984-49.493-85.714-.001.001 6.802-11.786 6.802-11.786h128.609c-11.898 10.059-27.391 15.455-43.241 15v15c23.171.573 45.522-9.089 60.819-26.193-1.727 31.864-29.131 57.475-60.819 56.193v15c14.763.384 29.366-3.579 41.599-11.516-7.495 19.854-26.687 34.016-49.131 34.016zm187.5-102.218v55.417c-11.14-14.446-27.621-24.574-46.458-27.398 2.702-16.515 1.76-43.515 1.906-60.514 11.879.908 23.165 3.962 33.48 8.764 5.48 5.355 11.072 14.737 11.072 23.731zm45.382 8.59c-18.041-31.236-50.669-53.019-88.505-56.007 5.838-25.931 29.038-45.365 56.706-45.365 17.278-.641 31.837 13.273 31.799 30.596z"/></g></g></svg>