<svg height="512" viewBox="0 0 64 64" width="512" xmlns="http://www.w3.org/2000/svg"><g id="Flat"><g id="Color_copy" data-name="Color copy"><g><path d="m48 47c-2.06 0-6-1.558-6-4s3.94-4 6-4a4 4 0 0 1 0 8zm0-6c-1.495 0-4 1.252-4 2s2.505 2 4 2a2 2 0 0 0 0-4z" fill="#f8664f"/><path d="m43 53a1 1 0 0 1 -1-1v-10a1 1 0 0 1 2 0v10a1 1 0 0 1 -1 1z" fill="#f8664f"/><path d="m58.172 12.9-7.072-7.072-4.83 4.83a5.828 5.828 0 0 1 -5.314 1.66 13.971 13.971 0 0 0 -16.056 8.774 6.108 6.108 0 0 1 -5.285 3.973 18 18 0 1 0 19.334 19.124 5.953 5.953 0 0 1 3.966-5.089 13.97 13.97 0 0 0 8.767-16.052 5.828 5.828 0 0 1 1.66-5.314z" fill="#fcbc04"/><path d="m58.172 12.9-4.5-4.5-3.33 3.33a5.828 5.828 0 0 0 -1.66 5.314 13.97 13.97 0 0 1 -8.768 16.056 5.953 5.953 0 0 0 -3.965 5.094 17.99 17.99 0 0 1 -32.049 10.006c-.071-.088-.13-.182-.2-.271a17.6 17.6 0 0 0 3.2 6.271 17.99 17.99 0 0 0 32.045-10.01 5.953 5.953 0 0 1 3.969-5.09 13.97 13.97 0 0 0 8.768-16.052 5.828 5.828 0 0 1 1.66-5.314z" fill="#e59730"/><path d="m26 38a5 5 0 0 1 -5 5 5 5 0 0 0 0 10 10 10 0 0 1 0-20 5 5 0 0 1 5 5z" fill="#d0d8da"/><path d="m31 43a10 10 0 0 1 -10 10 5 5 0 0 1 0-10 5 5 0 0 0 0-10 10 10 0 0 1 10 10z" fill="#656b76"/><path d="m53.757 4.243h6v6h-6z" fill="#d0d8da" transform="matrix(.707 .707 -.707 .707 21.745 -38.012)"/><path d="m40 52h6v8h-6z" fill="#f89c8d"/><path d="m20.305 24.963a2 2 0 0 0 .381.552l18.314 18.314a5.718 5.718 0 0 1 2.034-3.623l-17.25-17.251a6.073 6.073 0 0 1 -3.479 2.008z" fill="#e59730"/><rect fill="#f89c8d" height="32" rx="2" transform="matrix(.707 -.707 .707 .707 -13.255 32)" width="4" x="30" y="16"/><path d="m43.219 40.391a2 2 0 0 1 -2.734-.077l-19.7-19.7c-.031.027-.065.048-.095.077a2 2 0 0 0 0 2.829l19.8 19.8a2 2 0 1 0 2.829-2.829z" fill="#f8664f"/><path d="m44 52v2a4 4 0 0 1 -4 4v2h6v-8z" fill="#f8664f"/><path d="m58.879 6.364a3 3 0 0 1 -4.243 0l-.621-.621-1.5 1.5 4.242 4.242 4.243-4.242-1.5-1.5z" fill="#93999a"/><circle cx="21" cy="38" fill="#656b76" r="1"/><circle cx="21" cy="48" fill="#d0d8da" r="1"/><path d="m31.636 20.636a1 1 0 0 1 -.707-1.707 9.936 9.936 0 0 1 7.071-2.929 1 1 0 0 1 0 2 7.948 7.948 0 0 0 -5.657 2.343 1 1 0 0 1 -.707.293z" fill="#f9e109"/></g></g></g></svg>