<svg height="512" viewBox="0 0 512 512" width="512" xmlns="http://www.w3.org/2000/svg"><g id="flat"><path d="m64 36.687v-20.687h-16v24a8 8 0 0 0 2.343 5.657l18.343 18.343h-17.373l-13.656-13.657-11.314 11.314 16 16a8 8 0 0 0 5.657 2.343h36.686l11.314 11.313v44.687h16v-48a8 8 0 0 0 -2.343-5.657z" fill="#774b01"/><path d="m202.343 50.343-13.656 13.657h-17.373l18.343-18.343a8 8 0 0 0 2.343-5.657v-24h-16v20.687l-45.657 45.656a8 8 0 0 0 -2.343 5.657v48h16v-44.687l11.314-11.313h36.686a8 8 0 0 0 5.657-2.343l16-16z" fill="#774b01"/><path d="m320 336v72l24 24-8 56h24l16-64v-8l-16-16v-64z" fill="#c37c02"/><path d="m240 344v16l8 128h24v-128-16z" fill="#c37c02"/><path d="m448 264a32 32 0 0 0 32 32h8v12a20 20 0 0 1 -20 20 20 20 0 0 1 -20-20z" fill="#fbd79a"/><path d="m168 184v24a24 24 0 0 0 24 24h208a56 56 0 0 1 56 56v16a56 56 0 0 1 -56 56v32l32 32-16 64h-24l8-48-40-40v-40h-144v128h-24l-16-128a56 56 0 0 1 -56-56v-120z" fill="#f69c03"/><path d="m110.833 232h18.334a24 24 0 0 0 21.466-13.267l17.367-34.733v-48a16 16 0 0 0 -16-16h-64a16 16 0 0 0 -16 16v48l17.367 34.733a24 24 0 0 0 21.466 13.267z" fill="#f8b035"/><path d="m72 136h-16a32 32 0 0 1 -32-32h16a32 32 0 0 1 32 32z" fill="#f8b035"/><path d="m168 136h16a32 32 0 0 0 32-32h-16a32 32 0 0 0 -32 32z" fill="#f8b035"/><rect fill="#774b01" height="16" rx="8" width="16" x="96" y="144"/><rect fill="#774b01" height="16" rx="8" width="16" x="128" y="144"/><path d="m96 216a24 24 0 0 1 24-24 24 24 0 0 1 24 24 16 16 0 0 1 -16 16h-16a16 16 0 0 1 -16-16z" fill="#774b01"/><g fill="#fbd79a"><path d="m192 256h16v16h-16z"/><path d="m232 272h16v16h-16z"/><path d="m272 248h16v16h-16z"/><path d="m312 264h16v16h-16z"/><path d="m352 248h16v16h-16z"/><path d="m392 264h16v16h-16z"/><path d="m368 296h16v16h-16z"/></g></g></svg>