<svg id="Capa_1" enable-background="new 0 0 512 512" height="512" viewBox="0 0 512 512" width="512" xmlns="http://www.w3.org/2000/svg" xmlns:xlink="http://www.w3.org/1999/xlink"><linearGradient id="SVGID_1_" gradientUnits="userSpaceOnUse" x1="74.98" x2="437.019" y1="437.019" y2="74.98"><stop offset="0" stop-color="#ff4747"/><stop offset="1" stop-color="#fff200"/></linearGradient><radialGradient id="SVGID_2_" cx="256" cy="256" gradientUnits="userSpaceOnUse" r="256"><stop offset="0" stop-color="#ff4747" stop-opacity=".8"/><stop offset="1" stop-color="#fffa78" stop-opacity="0"/></radialGradient><linearGradient id="SVGID_3_" gradientUnits="userSpaceOnUse" x1="-549.139" x2="430.854" y1="1061.139" y2="81.146"><stop offset="0" stop-color="#fffa78"/><stop offset="1" stop-color="#fff"/></linearGradient><linearGradient id="lg1"><stop offset="0" stop-color="#ffcb00"/><stop offset=".5" stop-color="#fff200"/><stop offset=".6048" stop-color="#fff52f"/><stop offset=".8789" stop-color="#fefca6"/><stop offset="1" stop-color="#feffd6"/></linearGradient><linearGradient id="SVGID_4_" gradientUnits="userSpaceOnUse" x1="-878.543" x2="434.411" xlink:href="#lg1" y1="1390.543" y2="77.589"/><linearGradient id="SVGID_5_" gradientUnits="userSpaceOnUse" x1="-383.868" x2="370.161" xlink:href="#lg1" y1="898.341" y2="144.312"/><linearGradient id="lg2"><stop offset="0" stop-color="#ff3838"/><stop offset="1" stop-color="#fff200"/></linearGradient><linearGradient id="SVGID_6_" gradientUnits="userSpaceOnUse" x1="175.574" x2="512.922" xlink:href="#lg2" y1="455.458" y2="118.111"/><linearGradient id="SVGID_7_" gradientUnits="userSpaceOnUse" x1="267.398" x2="413.468" xlink:href="#lg2" y1="363.649" y2="217.58"/><linearGradient id="lg3"><stop offset="0" stop-color="#ffb11d" stop-opacity="0"/><stop offset="1" stop-color="#ff3838" stop-opacity=".8"/></linearGradient><radialGradient id="SVGID_8_" cx="315.595" cy="315.596" gradientUnits="userSpaceOnUse" r="43.051" xlink:href="#lg3"/><linearGradient id="SVGID_9_" gradientUnits="userSpaceOnUse" x1="58.409" x2="391.255" xlink:href="#lg2" y1="453.59" y2="120.745"/><linearGradient id="SVGID_10_" gradientUnits="userSpaceOnUse" x1="147.713" x2="291.426" xlink:href="#lg2" y1="364.302" y2="220.588"/><radialGradient id="SVGID_11_" cx="196.405" cy="315.596" gradientUnits="userSpaceOnUse" r="43.051" xlink:href="#lg3"/><linearGradient id="SVGID_12_" gradientUnits="userSpaceOnUse" x1="177.44" x2="510.289" xlink:href="#lg2" y1="334.56" y2="1.712"/><linearGradient id="SVGID_13_" gradientUnits="userSpaceOnUse" x1="268.007" x2="412.324" xlink:href="#lg2" y1="244.012" y2="99.695"/><radialGradient id="SVGID_14_" cx="315.595" cy="196.405" gradientUnits="userSpaceOnUse" r="43.051" xlink:href="#lg3"/><linearGradient id="SVGID_15_" gradientUnits="userSpaceOnUse" x1="56.541" x2="393.89" xlink:href="#lg2" y1="336.426" y2="-.923"/><linearGradient id="SVGID_16_" gradientUnits="userSpaceOnUse" x1="148.405" x2="294.263" xlink:href="#lg2" y1="244.58" y2="98.722"/><radialGradient id="SVGID_17_" cx="196.405" cy="196.405" gradientUnits="userSpaceOnUse" r="43.051" xlink:href="#lg3"/><g><circle cx="256" cy="256" fill="url(#SVGID_1_)" r="256"/><circle cx="256" cy="256" fill="url(#SVGID_2_)" r="256"/><path d="m368.5 415.429c-75 2.679-150 2.679-225 0-24.78-.942-45.987-22.149-46.929-46.928-2.679-75-2.679-150 0-225 .942-24.78 22.149-45.988 46.929-46.928 75-2.679 150-2.679 225 0 24.78.942 45.987 22.149 46.929 46.928 2.679 75 2.679 150 0 225-.942 24.778-22.149 45.987-46.929 46.928z" fill="url(#SVGID_3_)"/><circle cx="256" cy="256" fill="url(#SVGID_4_)" r="161.438"/><path d="m271.129 386.659c-86.969-.051-161.51-74.253-161.063-160.795.164-19.425 4.072-38.072 10.954-55.461-16.584 25.073-26.47 54.32-26.458 85.597.451 86.058 75.38 160.987 161.438 161.438 67.227-.038 126.756-46.097 150.87-106.292-29.501 44.139-79.756 75.308-135.741 75.513z" fill="url(#SVGID_5_)"/><path d="m346.242 315.336c-.185 16.835-14.072 30.72-30.906 30.906-16.836.18-30.429-13.522-30.388-30.494.048-16.975 13.825-30.751 30.8-30.8 16.972-.04 30.675 13.552 30.494 30.388z" fill="url(#SVGID_6_)"/><path d="m323.126 330.849c-16.879.171-30.501-13.519-30.461-30.486.006-1.881.189-3.719.518-5.507-5.089 5.49-8.209 12.831-8.235 20.891-.04 16.975 13.552 30.674 30.388 30.494 14.972-.16 27.591-11.17 30.347-25.43-5.663 6.079-13.689 9.954-22.557 10.038z" fill="url(#SVGID_7_)"/><path d="m346.242 315.336c-.185 16.835-14.072 30.72-30.906 30.906-16.836.18-30.429-13.522-30.388-30.494.048-16.975 13.825-30.751 30.8-30.8 16.972-.04 30.675 13.552 30.494 30.388z" fill="url(#SVGID_8_)"/><path d="m227.052 315.748c.04 16.973-13.553 30.672-30.388 30.494-16.834-.187-30.721-14.072-30.906-30.906-.181-16.836 13.521-30.428 30.494-30.388 16.975.048 30.752 13.824 30.8 30.8z" fill="url(#SVGID_9_)"/><path d="m204.169 330.979c-16.878-.137-30.745-13.988-30.873-30.844-.013-1.869.153-3.698.466-5.474-5.041 5.421-8.087 12.674-8.004 20.676.185 16.834 14.071 30.72 30.906 30.906 14.973.16 27.36-10.655 29.907-24.988-5.574 6.038-13.534 9.79-22.402 9.724z" fill="url(#SVGID_10_)"/><path d="m227.052 315.748c.04 16.973-13.553 30.672-30.388 30.494-16.834-.187-30.721-14.072-30.906-30.906-.181-16.836 13.521-30.428 30.494-30.388 16.975.048 30.752 13.824 30.8 30.8z" fill="url(#SVGID_11_)"/><path d="m346.242 196.664c.181 16.837-13.521 30.427-30.494 30.388-16.975-.049-30.752-13.823-30.8-30.8-.04-16.972 13.552-30.675 30.388-30.494 16.834.185 30.721 14.072 30.906 30.906z" fill="url(#SVGID_12_)"/><path d="m323.358 211.77c-16.96-.085-30.742-13.877-30.82-30.844-.01-1.881.158-3.717.47-5.503-5.018 5.449-8.086 12.771-8.061 20.83.048 16.974 13.825 30.752 30.8 30.8 15.089.041 27.59-10.716 30.046-24.923-5.544 5.965-13.535 9.688-22.435 9.64z" fill="url(#SVGID_13_)"/><path d="m346.242 196.664c.181 16.837-13.521 30.427-30.494 30.388-16.975-.049-30.752-13.823-30.8-30.8-.04-16.972 13.552-30.675 30.388-30.494 16.834.185 30.721 14.072 30.906 30.906z" fill="url(#SVGID_14_)"/><path d="m227.052 196.253c-.048 16.974-13.825 30.752-30.8 30.8-16.973.039-30.675-13.551-30.494-30.388.185-16.836 14.072-30.721 30.906-30.906 16.836-.181 30.429 13.519 30.388 30.494z" fill="url(#SVGID_15_)"/><path d="m203.989 211.693c-16.958.061-30.617-13.52-30.408-30.38.022-1.87.222-3.7.566-5.483-5.118 5.514-8.307 12.831-8.389 20.834-.181 16.837 13.521 30.427 30.494 30.388 15.091-.046 27.65-10.939 30.282-25.29-5.618 6.075-13.644 9.893-22.545 9.931z" fill="url(#SVGID_16_)"/><path d="m227.052 196.253c-.048 16.974-13.825 30.752-30.8 30.8-16.973.039-30.675-13.551-30.494-30.388.185-16.836 14.072-30.721 30.906-30.906 16.836-.181 30.429 13.519 30.388 30.494z" fill="url(#SVGID_17_)"/></g></svg>